{"title":"Williams.2017.Bluray.1080p.x265.MAjUS","magnet":"magnet:?xt=urn:btih:8e5868f13bb2df41a824497431f46f46b46964bb&dn=Williams.2017.Bluray.1080p.x265.MAjUS&tr=udp%3A%2F%2Ftracker.leechers-paradise.org%3A6969&tr=udp%3A%2F%2Fzer0day.ch%3A1337&tr=udp%3A%2F%2Fopen.demonii.com%3A1337&tr=udp%3A%2F%2Ftracker.coppersurfer.tk%3A6969&tr=udp%3A%2F%2Fexodus.desync.com%3A6969","uploader":"MAjUS-HEVC","categoryP":"video","categoryS":"hd___movies","size":"4116756036","seeders":"4","leechers":"35","description":"Williams.2017.Bluray.1080p.x265.MAjUS\r\n\r\n\r\nFormat                      : Matroska\r\nFormat version              : Version 4 / Version 2\r\nFile size                   : 3.83 GiB\r\nDuration                    : 1 h 44 min\r\nOverall bit rate            : 5 249 kb/s\r\nWriting application         : Lavf57.56.101\r\nWriting library             : Lavf57.56.101 / Lavf57.56.101\r\nErrorDetectionType          : Per level 1\r\n\r\nVideo\r\nID                          : 1\r\nFormat                      : HEVC\r\nFormat/Info                 : High Efficiency Video Coding\r\nFormat profile              : <a href=\"/cdn-cgi/l/email-protection\" class=\"__cf_email__\" data-cfemail=\"3f725e56517f730a110e\">[email&#xA0;protected]</a>@High\r\nCodec ID                    : V_MPEGH/ISO/HEVC\r\nDuration                    : 1 h 44 min\r\nBit rate                    : 4 824 kb/s\r\nWidth                       : 1 920 pixels\r\nHeight                      : 940 pixels\r\nDisplay aspect ratio        : 2.043\r\nFrame rate mode             : Constant\r\nFrame rate                  : 25.000 FPS\r\nColor space                 : YUV\r\nChroma subsampling          : 4:2:0\r\nBit depth                   : 8 bits\r\nBits/(Pixel*Frame)          : 0.107\r\nStream size                 : 3.52 GiB (92%)\r\n\r\n\r\nAudio\r\nID                          : 2\r\nFormat                      : AC-3\r\nFormat/Info                 : Audio Coding 3\r\nMode extension              : CM (complete main)\r\nFormat settings, Endianness : Big\r\nCodec ID                    : A_AC3\r\nDuration                    : 1 h 44 min\r\nBit rate mode               : Constant\r\nBit rate                    : 320 kb/s\r\nChannel(s)                  : 6 channels\r\nChannel positions           : Front: L C R, Side: L R, LFE\r\nSampling rate               : 48.0 kHz\r\nFrame rate                  : 31.250 FPS (1536 spf)\r\nCompression mode            : Lossy\r\nStream size                 : 239 MiB (6%)\r\nDefault                     : No\r\nForced                      : No","last_updated":"2017-11-04T12:09:31.554Z","parsed":{"xt":"urn:btih:8e5868f13bb2df41a824497431f46f46b46964bb","dn":"Williams.2017.Bluray.1080p.x265.MAjUS","tr":["udp://exodus.desync.com:6969","udp://open.demonii.com:1337","udp://tracker.coppersurfer.tk:6969","udp://tracker.leechers-paradise.org:6969","udp://zer0day.ch:1337"],"infoHash":"8e5868f13bb2df41a824497431f46f46b46964bb","infoHashBuffer":{"type":"Buffer","data":[142,88,104,241,59,178,223,65,168,36,73,116,49,244,111,70,180,105,100,187]},"name":"Williams.2017.Bluray.1080p.x265.MAjUS","announce":["udp://exodus.desync.com:6969","udp://open.demonii.com:1337","udp://tracker.coppersurfer.tk:6969","udp://tracker.leechers-paradise.org:6969","udp://zer0day.ch:1337"],"urlList":[]}}